<svg width="25" height="57" viewBox="0 0 25 57" fill="none" xmlns="http://www.w3.org/2000/svg">
<path d="M9.045 41.9892C7.91379 40.114 7.14281 38.6283 6.18452 37.2724C0.218635 28.8198 -0.8045 19.4007 1.05444 9.5706C1.566 6.88047 3.00705 4.32018 4.31119 1.85362C5.61533 -0.605715 10.0969 -0.605719 11.574 1.7815C11.8622 2.25029 11.6965 3.51962 11.293 3.82974C6.43672 7.544 5.66577 12.8593 5.93236 18.2973C6.24939 24.8387 7.58234 31.1998 11.6461 36.6594C12.7845 38.1956 13.7284 39.2486 15.6233 37.5898C16.524 36.8036 17.9002 36.5656 18.808 35.7795C20.0401 34.7193 21.3226 34.7915 22.2377 35.7002C23.1383 36.5873 23.7508 37.9215 24.1254 39.162C24.6226 40.828 25.1486 42.6383 24.9612 44.3187C24.5793 47.8815 23.8156 51.4154 23.0735 54.9349C22.5043 57.6034 20.3283 57.0698 18.6207 56.6659C13.5194 55.4615 8.38212 54.3003 3.45378 52.555C1.96231 52.0285 0.593324 49.7999 0.124988 48.0906C-0.429812 46.0496 0.910359 44.4774 3.1944 43.9148C5.04613 43.4604 6.83298 42.7248 9.05217 41.982L9.045 41.9892Z" fill="url(#paint0_linear_51_30)"/>
<defs>
<linearGradient id="paint0_linear_51_30" x1="12.5" y1="57" x2="12.5" y2="-2.72191e-06" gradientUnits="userSpaceOnUse">
<stop stop-color="#F37127"/>
<stop offset="1" stop-color="#70CCAF"/>
</linearGradient>
</defs>
</svg>
