<svg width="33" height="56" viewBox="0 0 33 56" fill="none" xmlns="http://www.w3.org/2000/svg">
<path d="M16.5389 44.9286C18.4882 46.2532 20.3606 47.2748 21.8907 48.6698C22.6243 49.3321 23.2811 50.9737 22.9597 51.7064C22.4916 52.7562 21.199 53.8412 20.0672 54.109C16.4481 54.9615 12.7591 55.7083 9.06309 55.976C6.87625 56.1381 4.5846 55.4476 2.4257 54.8417C1.86676 54.6867 1.39167 53.4044 1.29386 52.5871C0.804786 48.5923 0.49039 44.5764 0.0362535 40.5745C-0.208284 38.4256 0.790823 36.946 2.83794 37.5097C4.92697 38.0804 6.7365 39.6515 8.74868 40.6168C9.5801 41.0184 10.8517 41.4059 11.5154 41.0395C12.9058 40.2786 14.1425 39.109 15.2464 37.9324C20.8707 31.9649 26.1107 25.6943 27.5919 17.2538C28.0181 14.8301 28.0041 12.2585 27.7386 9.8067C27.3963 6.60804 25.3422 4.57187 22.3379 3.52209C21.8628 3.36004 21.2619 3.26845 20.9755 2.93026C20.4794 2.33844 20.186 1.57753 19.8087 0.887067C20.5423 0.577066 21.3178 -0.071124 22.0095 0.00637532C26.3553 0.506608 29.9813 3.07822 31.5813 7.48872C34.3061 14.9922 32.9507 22.2209 28.8425 28.7098C25.6566 33.7474 21.6462 38.2565 17.9991 42.9982C17.4961 43.6463 17.007 44.3086 16.5319 44.9427L16.5389 44.9286Z" fill="url(#paint0_linear_51_31)"/>
<defs>
<linearGradient id="paint0_linear_51_31" x1="16.5" y1="56" x2="16.5" y2="-2.37222e-06" gradientUnits="userSpaceOnUse">
<stop stop-color="#F37127"/>
<stop offset="1" stop-color="#70CCAF"/>
</linearGradient>
</defs>
</svg>
