<svg width="26" height="18" viewBox="0 0 26 18" fill="none" xmlns="http://www.w3.org/2000/svg">
<path d="M8.61066 14.8042C7.83673 14.0898 6.99392 13.6144 6.55985 12.8646C5.37195 10.8087 4.28678 8.67651 3.29506 6.50326C2.75023 5.30004 3.16317 4.22543 4.48735 3.63537C5.85114 3.02938 6.67439 3.44444 7.31247 4.78664C8.41818 7.10976 9.77241 9.2963 10.8726 11.6182C11.1787 12.2708 11.2688 13.4524 10.8977 13.9651C10.5005 14.5092 9.43512 14.5427 8.61469 14.8114L8.61066 14.8042Z" fill="black"/>
<path d="M13.3873 3.28213C13.8616 4.29211 14.5109 5.44051 14.953 6.68448C15.3676 7.85423 15.7234 9.09115 15.8057 10.3407C15.8766 11.433 15.535 12.5746 15.3751 13.6954C14.3964 13.4192 13.1258 13.4485 12.5018 12.8068C10.5281 10.7539 10.1615 7.90622 10.1491 5.05175C10.1407 3.11985 11.713 3.57304 13.3873 3.28213Z" fill="black"/>
<path d="M20.2861 3.84284C22.9489 5.66109 22.692 8.75718 23.3483 11.3726C23.5286 12.0935 22.6987 13.1495 22.338 14.0516C21.5727 13.7245 20.4171 13.6311 20.1169 13.0317C19.1407 11.0739 18.2884 9.00189 17.7503 6.8522C17.2717 4.94474 18.6131 4.10907 20.2861 3.84284Z" fill="black"/>
</svg>
