<svg width="23" height="17" viewBox="0 0 23 17" fill="none" xmlns="http://www.w3.org/2000/svg">
<path d="M14.6113 10.7833C13.8761 11.4247 13.2548 11.9242 12.6825 12.4844C11.2597 13.8772 9.83651 13.5693 9.58485 11.6134C9.41925 10.3161 9.61088 8.89436 9.91456 7.58476C10.1615 6.53549 10.9 5.59066 11.2796 4.55264C11.8668 2.92823 12.9786 2.40259 14.2776 3.09221C15.4634 3.7191 16.2893 4.74914 15.3963 6.45988C14.853 7.4921 13.4361 8.52633 14.9086 10.0805C15.7549 8.3903 16.5212 6.82481 17.3052 5.28192C18.0376 3.84536 19.0001 3.01303 20.5368 3.94237C21.7425 4.67304 21.9829 6.40303 21.1753 7.7668C20.2055 9.41061 19.3984 11.1531 18.3791 12.761C17.785 13.6949 16.9044 14.4401 16.1491 15.2694C15.6889 14.3962 15.1663 13.5586 14.794 12.643C14.5997 12.171 14.6761 11.5675 14.6082 10.795L14.6113 10.7833Z" fill="black"/>
<path d="M1.81624 9.50278C3.66644 6.80503 5.20502 4.40634 6.94421 2.17614C7.24263 1.79406 8.63585 1.83797 9.12298 2.22515C9.69298 2.67417 10.2949 3.91244 10.0534 4.45518C8.98737 6.87446 7.70888 9.21494 6.33405 11.4782C5.73734 12.4641 4.73097 13.967 3.53901 13.0449C2.64703 12.3569 2.40198 10.7805 1.82327 9.49822L1.81624 9.50278Z" fill="black"/>
</svg>
